<?xml version="1.0" encoding="UTF-8" standalone="no"?>
<!DOCTYPE svg PUBLIC "-//W3C//DTD SVG 1.1//EN" "http://www.w3.org/Graphics/SVG/1.1/DTD/svg11.dtd">
<svg width="100%" height="100%" viewBox="0 0 256 256" version="1.1" xmlns="http://www.w3.org/2000/svg" xmlns:xlink="http://www.w3.org/1999/xlink" xml:space="preserve" xmlns:serif="http://www.serif.com/" style="fill-rule:evenodd;clip-rule:evenodd;stroke-linecap:round;stroke-linejoin:round;stroke-miterlimit:1.5;">
    <g transform="matrix(1.3681,0,0,1.3681,-47.3006,-47.3006)">
        <g transform="matrix(1,0,0,1,0.25,0)">
            <path d="M108,113L113,189" style="fill:none;stroke:rgb(114,118,125);stroke-width:6.58px;"/>
            <g transform="matrix(-1,0,0,1,256.5,0)">
                <path d="M108,113L113,189" style="fill:none;stroke:rgb(114,118,125);stroke-width:6.58px;"/>
            </g>
        </g>
        <path d="M83.475,204.751C83.773,207.731 86.28,210 89.275,210C105.079,210 151.921,210 167.725,210C170.72,210 173.227,207.731 173.525,204.751C175.837,181.63 185,90 185,90L72,90C72,90 81.163,181.63 83.475,204.751Z" style="fill:none;stroke:rgb(114,118,125);stroke-width:6.58px;"/>
        <g transform="matrix(1,0,0,1,0.5,0)">
            <path d="M187,68C193.071,68 198,72.929 198,79C198,85.071 193.071,90 187,90L69,90C62.929,90 58,85.071 58,79C58,72.929 62.929,68 69,68L187,68Z" style="fill:none;stroke:rgb(114,118,125);stroke-width:6.58px;"/>
        </g>
        <g transform="matrix(1,0,0,1,1,0)">
            <path d="M105,68C105,68 105,59.043 105,52.829C105,51.283 105.614,49.8 106.707,48.707C107.8,47.614 109.283,47 110.829,47C119.459,47 135.541,47 144.171,47C145.717,47 147.2,47.614 148.293,48.707C149.386,49.8 150,51.283 150,52.829C150,59.043 150,68 150,68" style="fill:none;stroke:rgb(114,118,125);stroke-width:6.58px;"/>
        </g>
    </g>
</svg>
