<svg xmlns="http://www.w3.org/2000/svg" fill-rule="evenodd" stroke-linejoin="round" stroke-miterlimit="1.414" clip-rule="evenodd" viewBox="0 0 50 50">
	<circle cx="22.5" cy="26" r="14.5" fill="#7289da" transform="translate(-13.793 -19.828) scale(1.72414)"/>
	<path fill="#f4f4f5" d="M7.414 42.762c2.204-6.655 12.113-5.953 13.705-10.234.146-1.612.091-2.737.091-4.21-.732-.383-2.092-2.826-2.312-4.888-.574-.047-1.478-.607-1.744-2.818-.142-1.187.426-1.855.771-2.065-1.941-7.47-.873-13.993 7.981-14.156 2.213 0 3.916.591 4.581 1.759 6.462.898 4.522 9.588 3.588 12.397.346.21.914.878.771 2.065-.265 2.211-1.17 2.771-1.744 2.818-.221 2.063-1.529 4.505-2.259 4.888 0 1.473-.056 2.598.09 4.21 1.467 3.943 9.955 3.659 13 8.792C39.347 46.634 32.563 50 25 50c-6.854 0-13.067-2.764-17.586-7.238z"/>
</svg>
